<?xml version="1.0" encoding="UTF-8" standalone="no"?>
<!-- Created with Inkscape (http://www.inkscape.org/) -->

<svg width="256" height="256" viewBox="0 0 256 256" version="1.1" id="ylke-favicon" inkscape:version="1.4.2 (ebf0e940d0, 2025-05-08)" sodipodi:docname="favicon.svg" xmlns:inkscape="http://www.inkscape.org/namespaces/inkscape" xmlns:sodipodi="http://sodipodi.sourceforge.net/DTD/sodipodi-0.dtd" xmlns="http://www.w3.org/2000/svg" xmlns:svg="http://www.w3.org/2000/svg">
  <sodipodi:namedview id="namedview7" pagecolor="#c1c8cb" bordercolor="#6c838d" borderopacity="0.97647059" inkscape:pageshadow="0" inkscape:pageopacity="0.97647059" inkscape:pagecheckerboard="1" inkscape:document-units="px" showgrid="true" borderlayer="false" inkscape:showpageshadow="true" showborder="true" inkscape:snap-page="true" inkscape:deskcolor="#505050" inkscape:zoom="2.6712923" inkscape:cx="53.906494" inkscape:cy="152.17354" inkscape:current-layer="favicon">
    <inkscape:grid id="grid1" units="px" originx="0" originy="0" spacingx="1" spacingy="1" empcolor="#0099e5" empopacity="0.30196078" color="#0099e5" opacity="0.14901961" empspacing="5" enabled="true" visible="true" />
  </sodipodi:namedview>
  <defs id="defs2" />
  <g id="favicon">
    <path id="path30" style="color:#000000;fill:#f9f9f9;fill-opacity:1;stroke:none;stroke-width:4.90022;stroke-linecap:square;stroke-dasharray:none;stroke-opacity:1;paint-order:stroke fill markers" d="m 126.42173,17.156324 c -4.00509,0.03537 -8.0505,0.289872 -11.96006,0.748554 -3.76759,0.43074 -7.51068,1.068303 -11.21279,1.888172 -0.81452,0.190667 -1.91884,0.440388 -2.83842,0.67756 -11.777785,2.954069 -23.056951,7.867486 -33.255953,14.455042 -0.847926,0.556104 -1.922077,1.268698 -2.843643,1.903646 -1.410312,0.98072 -2.726599,1.934229 -4.1317,2.996382 -17.614598,13.357011 -31.17678,32.013716 -38.281784,52.959066 -4.627473,13.524734 -6.549797,27.946264 -5.741983,42.213474 0.09886,1.77664 0.236405,3.65521 0.407393,5.31283 1.645746,16.86163 7.237526,33.34032 16.356757,47.62936 6.340023,9.98067 14.478742,18.99644 23.758999,26.42649 17.54434,14.03917 39.135967,23.14762 61.559614,25.19124 6.91676,0.66486 13.8722,0.36228 20.80872,0.43075 33.63068,-0.001 67.26135,-0.002 100.89203,-0.004 -0.92244,-6.86911 -1.67076,-13.75236 -2.85744,-20.58933 -1.05569,-6.084 -2.34202,-12.25313 -3.79944,-18.30237 -2.86607,-11.95211 -6.46428,-23.95723 -10.84798,-35.53609 -2.27912,-6.0063 -4.77092,-11.93402 -7.5401,-17.73152 -5.22676,7.36278 -11.36086,14.03204 -17.79691,20.34694 5.88284,14.26127 10.20783,29.12305 13.58367,44.16221 0.5133,1.05054 0.0215,2.48895 -1.08579,2.91745 -1.04342,0.42679 -2.22698,0.10973 -3.32965,0.20602 -26.83743,-0.006 -53.67557,0.0147 -80.51256,-0.0292 -12.72377,-0.3734 -25.22567,-3.93086 -36.643684,-9.4594 -15.674707,-7.64242 -29.353279,-19.72387 -37.999068,-34.94923 -6.872911,-11.97099 -10.209718,-25.76661 -10.562267,-39.51188 -0.293064,-9.53018 0.887841,-19.11443 3.666126,-28.24231 4.746431,-15.900661 14.226221,-30.332845 26.906495,-41.033108 11.693055,-9.96697 26.101873,-16.690117 41.247168,-19.268942 5.93538,-1.047723 11.97319,-1.390194 17.99397,-1.289454 26.99183,0 53.98365,0 80.97549,0 -2.69424,11.891885 -5.78903,23.710976 -9.85447,35.214602 -3.13346,8.829896 -6.58142,17.594411 -11.23828,25.747592 -4.65505,8.23535 -9.93855,16.10575 -15.5613,23.70865 -2.68424,3.50908 -5.30249,7.11914 -8.61956,10.07022 -5.76263,5.35198 -12.4614,9.78754 -19.90177,12.42127 -6.69439,2.37095 -13.87204,3.35851 -20.95971,3.00318 -7.6395,-0.60852 -14.8601,-5.25697 -18.41456,-12.07329 -3.98473,-7.42283 -3.66865,-17.00822 1.03076,-24.04071 3.91856,-6.0769 10.82409,-10.066 18.03894,-10.47016 4.09663,-0.18812 8.21372,0.12322 12.2625,0.76028 6.49231,1.04295 12.77322,3.38145 18.31597,6.92803 0.99196,0.62729 1.96508,1.28504 2.91579,1.97339 5.01667,-6.35251 9.37158,-13.2121 13.23487,-20.319345 -5.88121,-4.088422 -12.27328,-7.465223 -19.05025,-9.803971 -0.37536,-0.118791 -1.14972,-0.381961 -1.67782,-0.55602 -8.8293,-2.812817 -18.17901,-3.842672 -27.42076,-3.475924 -3.75929,0.228921 -7.48548,0.933264 -11.08095,2.051444 -0.57317,0.18418 -1.45739,0.471801 -2.14005,0.726639 -5.73581,2.094202 -11.07414,5.277939 -15.621398,9.355193 -0.648576,0.576638 -1.480618,1.356203 -2.165886,2.054506 -1.497603,1.498556 -3.008502,3.268559 -4.213099,4.852613 -1.266516,1.673965 -2.445891,3.460745 -3.443943,5.208455 -3.368629,5.84699 -5.453878,12.42714 -6.070344,19.14678 -0.06444,0.65665 -0.130411,1.6325 -0.161197,2.41469 -0.07085,1.68688 -0.051,3.37556 0.05438,4.97952 0.610857,10.02305 4.535075,19.78694 10.979413,27.48244 7.224038,8.72172 17.567844,14.84944 28.757534,16.73048 1.40965,0.25088 2.82427,0.4191 4.16113,0.53872 0.97332,0.075 1.83419,0.12443 2.73258,0.1469 13.59681,0.23879 27.19706,-3.2403 39.10239,-9.78786 8.42699,-4.60687 16.09408,-10.58742 22.63888,-17.6153 4.8605,-5.08 9.3332,-10.53287 13.3337,-16.3153 0.54129,-0.80227 1.24746,-1.83183 1.82907,-2.73623 4.37133,-6.79085 8.22755,-13.77732 11.70315,-21.08237 3.49094,-7.31993 6.63274,-15.004719 9.3828,-22.72359 5.48679,-15.45852 9.75217,-31.541941 12.71455,-47.749364 1.29667,-7.055702 2.07573,-14.191354 3.07,-21.292838 -37.85942,0.0026 -75.71884,0.0052 -113.57827,0.0079 z" />
  </g>
</svg>
