<?xml version="1.0" encoding="UTF-8" standalone="no"?>
<svg
   width="256"
   height="256"
   viewBox="0 0 256 256"
   version="1.1"
   id="ylke-favicon"
   inkscape:version="1.4.3 (74acc7518d, 2026-04-15)"
   sodipodi:docname="favicon-local.svg"
   xmlns:inkscape="http://www.inkscape.org/namespaces/inkscape"
   xmlns:sodipodi="http://sodipodi.sourceforge.net/DTD/sodipodi-0.dtd"
   xmlns="http://www.w3.org/2000/svg"
   xmlns:svg="http://www.w3.org/2000/svg">
  <sodipodi:namedview
     id="namedview1"
     pagecolor="#ffffff"
     bordercolor="#000000"
     borderopacity="0.25"
     inkscape:showpageshadow="2"
     inkscape:pageopacity="0.0"
     inkscape:pagecheckerboard="0"
     inkscape:deskcolor="#d1d1d1"
     inkscape:zoom="2.2753906"
     inkscape:cx="7.0317597"
     inkscape:cy="128.98884"
     inkscape:window-width="2560"
     inkscape:window-height="1374"
     inkscape:window-x="0"
     inkscape:window-y="0"
     inkscape:window-maximized="1"
     inkscape:current-layer="favicon" />
  <defs
     id="defs2" />
  <g
     id="favicon">
    <path
       id="path30"
       style="color:#000000;fill:#da0058;fill-opacity:1;stroke:none;stroke-width:4.90022;stroke-linecap:square;stroke-dasharray:none;stroke-opacity:1;paint-order:stroke fill markers"
       d="M 126.42188,11.15625 C 103.84221,11.293626 81.365825,18.205293 62.595449,30.753156 42.391534,44.164787 26.45483,63.927943 17.768563,86.580556 11.849908,101.90147 9.280075,118.47705 10.138287,134.87251 c 0.828741,16.85074 5.254607,33.54808 13.170121,48.46463 8.184248,15.51679 20.087115,29.00336 34.296049,39.26888 18.774453,13.65165 41.453996,22.08103 64.686853,23.24798 5.60621,0.27656 11.22132,0.0847 16.83174,0.13937 35.88411,-0.003 71.76823,-0.006 107.65234,-0.009 -1.73358,-12.76388 -3.00806,-25.64552 -5.85596,-38.24479 -4.71502,-22.13156 -11.62765,-43.86155 -21.44579,-64.27651 -1.17226,-2.48506 -2.34452,-4.97013 -3.51661,-7.45527 -4.52696,6.42495 -9.03548,12.89439 -14.29492,18.75196 -0.72658,0.79679 -1.62063,1.78323 -2.42827,2.64177 -2.98512,3.19363 -6.11087,6.25127 -9.20454,9.33869 5.57317,13.0864 9.95816,26.75048 13.31861,40.61074 0.17443,0.70352 0.34552,1.40784 0.50951,2.11387 -26.33017,-0.0397 -52.66112,0.0499 -78.99077,-0.0782 -3.99824,-0.1782 -7.97826,-0.70006 -11.8979,-1.50387 -0.4398,-0.0909 -1.06121,-0.22282 -1.54818,-0.33707 -9.67908,-2.22337 -18.986884,-6.06265 -27.447914,-11.25863 -13.482569,-8.33897 -24.779564,-20.5244 -31.101436,-35.14315 -0.955366,-2.21114 -1.79097,-4.47308 -2.531376,-6.76505 -0.161371,-0.54703 -0.443136,-1.41479 -0.629342,-2.09256 -2.906781,-10.10767 -3.749605,-20.76539 -2.863335,-31.22941 0.596116,-6.54622 1.988198,-13.01922 4.133302,-19.23272 0.151623,-0.40419 0.373577,-1.06378 0.544538,-1.50938 0.660103,-1.784504 1.391115,-3.56333 2.142107,-5.221659 2.71718,-6.037958 6.291114,-11.863274 10.350464,-16.962322 0.878892,-1.098665 1.751557,-2.151618 2.726764,-3.246706 12.160941,-13.804114 29.185835,-23.234913 47.361738,-26.126184 2.14869,-0.345508 4.19016,-0.594069 6.38829,-0.775876 3.88861,-0.345712 7.87336,-0.350865 11.83258,-0.312107 23.80964,0.0013 47.61927,0.0026 71.42891,0.0038 -1.59069,6.586667 -3.3762,13.12691 -5.39453,19.595703 -0.56497,1.784085 -1.20809,3.758654 -1.8388,5.605035 -1.66934,4.861752 -3.48332,9.71515 -5.45479,14.395219 -1.51326,3.62661 -3.26744,7.309744 -5.09899,10.681387 -3.63513,6.730908 -7.85584,13.123198 -12.20117,19.412108 -0.45793,0.635 -1.04193,1.48016 -1.53505,2.15816 -2.48522,3.40054 -4.96169,6.82346 -7.75646,9.97871 -3.22706,3.49715 -6.96183,6.51881 -10.96478,9.08359 -5.87979,3.74225 -12.59303,6.16904 -19.52378,6.954 -3.46806,0.40727 -7.01653,0.59138 -10.47216,-0.001 -6.15526,-1.30101 -11.44401,-6.23482 -12.91574,-12.38984 -1.59363,-6.0434 0.15935,-12.96473 4.81669,-17.22345 3.57386,-3.37441 8.60258,-5.06548 13.48988,-4.69962 8.77227,0.0817 17.68902,2.27287 25.00398,7.24339 2.2373,1.49762 4.42106,3.07294 6.6289,4.61328 6.57059,-7.93409 12.39825,-16.48499 17.28614,-25.555316 0.87704,-1.581594 1.75527,-3.162529 2.62988,-4.745467 -8.05621,-5.936909 -16.81358,-11.105179 -26.40201,-14.124745 -10.36604,-3.326881 -21.39543,-4.535228 -32.24158,-3.682481 -15.1815,1.549355 -29.455305,9.986628 -38.271454,22.423089 -7.772339,10.77569 -11.333089,24.51707 -9.640128,37.70645 1.595432,13.02378 8.172941,25.34978 18.080296,33.94977 9.690776,8.52691 22.511076,13.48985 35.444796,13.39979 13.74069,0.0391 27.43839,-3.46623 39.57407,-9.88503 9.94569,-5.20732 18.86056,-12.28474 26.42951,-20.55896 7.76756,-8.29951 14.4853,-17.56612 20.02362,-27.49099 11.23092,-19.75543 18.92226,-41.328572 24.61247,-63.272583 3.10618,-12.047902 5.48106,-24.286716 6.99191,-36.637983 0.60231,-4.485718 1.20343,-8.971597 1.8067,-13.457186 -40.14713,0.0023 -80.29427,0.0053 -120.4414,0.0078 z" />
  </g>
</svg>
